<?xml version="1.0" encoding="UTF-8"?>
<svg width="800" height="600" viewBox="0 0 800 600" fill="none" xmlns="http://www.w3.org/2000/svg">
  <rect width="800" height="600" fill="#F3F4F6"/>
  <path d="M400 300C400 355.228 355.228 400 300 400C244.772 400 200 355.228 200 300C200 244.772 244.772 200 300 200C355.228 200 400 244.772 400 300Z" fill="#E5E7EB"/>
  <path d="M300 250C272.386 250 250 272.386 250 300C250 327.614 272.386 350 300 350C327.614 350 350 327.614 350 300C350 272.386 327.614 250 300 250ZM300 325C286.193 325 275 313.807 275 300C275 286.193 286.193 275 300 275C313.807 275 325 286.193 325 300C325 313.807 313.807 325 300 325Z" fill="#9CA3AF"/>
  <path d="M325 300C325 314.912 313.142 327 298 327C282.858 327 271 314.912 271 300C271 285.088 282.858 273 298 273C313.142 273 325 285.088 325 300Z" fill="#D1D5DB"/>
  <path d="M298 300C298 304.971 294.194 309 289.5 309C284.806 309 281 304.971 281 300C281 295.029 284.806 291 289.5 291C294.194 291 298 295.029 298 300Z" fill="#9CA3AF"/>
</svg>
